<svg xmlns="http://www.w3.org/2000/svg" class="icon icon-cog" fill="#0A3DFA" viewBox="0 0 32 32"><path d="M19.465 20.593l1.396-1.396 6.274 6.274-1.396 1.396-6.274-6.274z"></path><path d="M5.413 6.541l1.396-1.396 6.274 6.274-1.396 1.396-6.274-6.274z"></path><path d="M17.465 10.546l3.396-8.198 1.824 0.755-3.396 8.198-1.824-0.755z"></path><path d="M9.861 28.908l3.396-8.198 1.824 0.755-3.396 8.198-1.824-0.755z"></path><path d="M15.286 21.507h1.974v8.873h-1.974v-8.873z"></path><path d="M15.286 1.62h1.974v8.873h-1.974v-8.873z"></path><path d="M17.467 21.468l1.824-0.755 3.396 8.198-1.824 0.755-3.396-8.198z"></path><path d="M9.863 3.107l1.824-0.755 3.396 8.198-1.824 0.755-3.396-8.198z"></path><path d="M2.619 11.42l0.755-1.824 8.198 3.396-0.755 1.824-8.198-3.396z"></path><path d="M20.976 12.991l8.198-3.396 0.755 1.824-8.198 3.396-0.755-1.824z"></path><path d="M2.619 20.597l8.198-3.395 0.755 1.824-8.198 3.395-0.755-1.824z"></path><path d="M19.465 11.421l6.274-6.274 1.396 1.396-6.274 6.274-1.396-1.396z"></path><path d="M5.413 25.474l6.274-6.274 1.396 1.396-6.274 6.274-1.396-1.396z"></path><path d="M1.901 15.020h28.745v1.974h-28.745v-1.974z"></path></svg>
